<svg width="248" height="156" viewBox="0 0 248 156" fill="none" xmlns="http://www.w3.org/2000/svg">
<path opacity="0.2" d="M69.47 166.76C56.2833 166.76 44.4767 163.54 34.05 157.1C23.6233 150.507 15.42 141 9.44 128.58C3.46 116.16 0.47 101.133 0.47 83.5C0.47 65.8667 3.46 50.84 9.44 38.42C15.42 26 23.6233 16.57 34.05 10.13C44.4767 3.53666 56.2833 0.239997 69.47 0.239997C82.81 0.239997 94.6167 3.53666 104.89 10.13C115.317 16.57 123.52 26 129.5 38.42C135.48 50.84 138.47 65.8667 138.47 83.5C138.47 101.133 135.48 116.16 129.5 128.58C123.52 141 115.317 150.507 104.89 157.1C94.6167 163.54 82.81 166.76 69.47 166.76ZM69.47 135.25C75.7567 135.25 81.2 133.487 85.8 129.96C90.5533 126.433 94.2333 120.837 96.84 113.17C99.6 105.503 100.98 95.6133 100.98 83.5C100.98 71.3867 99.6 61.4967 96.84 53.83C94.2333 46.1633 90.5533 40.5667 85.8 37.04C81.2 33.5133 75.7567 31.75 69.47 31.75C63.3367 31.75 57.8933 33.5133 53.14 37.04C48.54 40.5667 44.86 46.1633 42.1 53.83C39.4933 61.4967 38.19 71.3867 38.19 83.5C38.19 95.6133 39.4933 105.503 42.1 113.17C44.86 120.837 48.54 126.433 53.14 129.96C57.8933 133.487 63.3367 135.25 69.47 135.25ZM154.295 164V139.85L216.395 81.2C221.302 76.7533 224.905 72.7667 227.205 69.24C229.505 65.7133 231.038 62.4933 231.805 59.58C232.725 56.6667 233.185 53.9833 233.185 51.53C233.185 45.09 230.962 40.1833 226.515 36.81C222.222 33.2833 215.858 31.52 207.425 31.52C200.678 31.52 194.392 32.8233 188.565 35.43C182.892 38.0367 178.062 42.1 174.075 47.62L146.935 30.14C153.068 20.94 161.655 13.6567 172.695 8.28999C183.735 2.92333 196.462 0.239997 210.875 0.239997C222.835 0.239997 233.262 2.23333 242.155 6.21999C251.202 10.0533 258.178 15.4967 263.085 22.55C268.145 29.6033 270.675 38.0367 270.675 47.85C270.675 53.0633 269.985 58.2767 268.605 63.49C267.378 68.55 264.772 73.9167 260.785 79.59C256.952 85.2633 251.278 91.6267 243.765 98.68L192.245 147.21L185.115 133.64H275.965V164H154.295Z" fill="#131217"/>
</svg>
