<svg width="248" height="156" viewBox="0 0 248 156" fill="none" xmlns="http://www.w3.org/2000/svg">
<path opacity="0.2" d="M69.97 166.76C56.7833 166.76 44.9767 163.54 34.55 157.1C24.1233 150.507 15.92 141 9.94 128.58C3.96 116.16 0.97 101.133 0.97 83.5C0.97 65.8667 3.96 50.84 9.94 38.42C15.92 26 24.1233 16.57 34.55 10.13C44.9767 3.53666 56.7833 0.239997 69.97 0.239997C83.31 0.239997 95.1167 3.53666 105.39 10.13C115.817 16.57 124.02 26 130 38.42C135.98 50.84 138.97 65.8667 138.97 83.5C138.97 101.133 135.98 116.16 130 128.58C124.02 141 115.817 150.507 105.39 157.1C95.1167 163.54 83.31 166.76 69.97 166.76ZM69.97 135.25C76.2567 135.25 81.7 133.487 86.3 129.96C91.0533 126.433 94.7333 120.837 97.34 113.17C100.1 105.503 101.48 95.6133 101.48 83.5C101.48 71.3867 100.1 61.4967 97.34 53.83C94.7333 46.1633 91.0533 40.5667 86.3 37.04C81.7 33.5133 76.2567 31.75 69.97 31.75C63.8367 31.75 58.3933 33.5133 53.64 37.04C49.04 40.5667 45.36 46.1633 42.6 53.83C39.9933 61.4967 38.69 71.3867 38.69 83.5C38.69 95.6133 39.9933 105.503 42.6 113.17C45.36 120.837 49.04 126.433 53.64 129.96C58.3933 133.487 63.8367 135.25 69.97 135.25ZM207.037 166.76C195.844 166.76 184.727 165.303 173.687 162.39C162.647 159.323 153.294 155.03 145.627 149.51L160.117 120.99C166.251 125.437 173.381 128.963 181.507 131.57C189.634 134.177 197.837 135.48 206.117 135.48C215.471 135.48 222.831 133.64 228.197 129.96C233.564 126.28 236.247 121.22 236.247 114.78C236.247 108.647 233.871 103.817 229.117 100.29C224.364 96.7633 216.697 95 206.117 95H189.097V70.39L233.947 19.56L238.087 32.9H153.677V2.99999H266.377V27.15L221.757 77.98L202.897 67.17H213.707C233.487 67.17 248.437 71.6167 258.557 80.51C268.677 89.4033 273.737 100.827 273.737 114.78C273.737 123.827 271.361 132.337 266.607 140.31C261.854 148.13 254.571 154.493 244.757 159.4C234.944 164.307 222.371 166.76 207.037 166.76Z" fill="#131217"/>
</svg>
