<svg width="48" height="48" viewBox="0 0 48 48" fill="none" xmlns="http://www.w3.org/2000/svg">
<g clip-path="url(#clip0_6_28065)">
<path d="M40.6349 0H7.34425C3.29266 0.0119099 0.0119048 3.29409 0 7.34743V40.6744C0.0228175 44.7268 3.31349 48 7.36508 48H40.6349C44.6865 48 47.9772 44.7268 48 40.6744V7.34743C47.9881 3.28615 44.6944 0 40.6349 0ZM33.9256 24.4759C33.8552 24.5742 33.7698 24.6595 33.6716 24.73L27.4494 30.9757C27.0595 31.3797 26.4157 31.3896 26.0129 30.9996C26.005 30.9916 25.997 30.9837 25.9891 30.9757C25.6131 30.5698 25.6131 29.9416 25.9891 29.5356L30.5179 25.0257H15.0466C14.4623 25.0257 13.9881 24.5513 13.9881 23.9667C13.9881 23.3822 14.4623 22.9078 15.0466 22.9078H30.5179L26.0099 18.4822C25.6339 18.0763 25.6339 17.449 26.0099 17.0421C26.4147 16.6412 27.0655 16.6412 27.4702 17.0421L33.6925 23.3941C33.7937 23.4804 33.874 23.5886 33.9256 23.7117C34.0288 23.9558 34.0288 24.2308 33.9256 24.4739V24.4759Z" fill="url(#paint0_linear_6_28065)"/>
</g>
<defs>
<linearGradient id="paint0_linear_6_28065" x1="0" y1="24" x2="48" y2="24" gradientUnits="userSpaceOnUse">
<stop stop-color="#020411"/>
<stop offset="1" stop-color="#050D42"/>
</linearGradient>
<clipPath id="clip0_6_28065">
<rect width="48" height="48" rx="24" fill="white"/>
</clipPath>
</defs>
</svg>
