<svg width="220" height="200" viewBox="0 0 220 200" fill="none" xmlns="http://www.w3.org/2000/svg">
<g clip-path="url(#clip0_259_884)">
<rect width="220" height="200" rx="20" fill="#5165F6"/>
<path opacity="0.26" fill-rule="evenodd" clip-rule="evenodd" d="M176.152 75.6157C172.319 75.6381 168.466 75.8528 164.609 76.2631C158.589 76.9072 152.562 78.0267 146.589 79.6491C146.411 79.6971 146.281 79.8493 146.265 80.0402C146.075 82.542 146.047 85.7082 146.13 88.1461C135.697 91.2322 125.993 95.7568 117.122 101.673C116.452 101.059 115.696 100.411 114.908 99.7637C113.541 98.6392 112.076 97.515 110.777 96.5881C110.622 96.481 110.422 96.4827 110.269 96.5857C101.933 102.372 94.5381 109.149 88.1766 116.639C88.122 116.704 88.0842 116.781 88.0776 116.865C83.0854 149.111 89.757 175.182 103.007 197.825C103.07 197.937 103.188 198.016 103.311 198.046C117.88 200.956 130.649 200.892 142.464 199.286C142.653 199.261 142.798 199.12 142.839 198.935C143.727 194.462 144.265 189.935 144.405 185.37C144.406 185.289 144.388 185.213 144.354 185.147C144.313 185.068 144.248 185.003 144.169 184.962C144.096 184.926 144.012 184.905 143.924 184.911C139.864 185.212 135.833 185.15 131.827 184.809C131.508 184.782 131.32 184.433 131.472 184.154C131.906 183.346 132.33 182.517 132.719 181.698C132.79 181.549 132.94 181.454 133.103 181.449C158.291 181.248 180.771 170.766 196.869 151.714C196.948 151.621 197.063 151.564 197.184 151.56C197.226 151.558 197.267 151.564 197.31 151.572C197.727 151.681 198.15 151.786 198.577 151.887C199.051 151.997 199.527 152.103 200.001 152.198C200.309 152.263 200.462 152.628 200.281 152.889C198.899 154.882 197.426 156.792 195.856 158.63C195.268 159.32 194.668 159.998 194.053 160.665C193.569 161.191 193.077 161.709 192.576 162.221C192.39 162.41 192.411 162.72 192.621 162.883C193.723 163.736 194.844 164.56 195.979 165.355C198.578 167.18 201.263 168.859 204.015 170.401C204.106 170.454 204.213 170.471 204.313 170.452L204.385 170.433C204.436 170.413 204.487 170.386 204.528 170.345C213.401 162.304 221.658 152.563 228.794 139.533C228.856 139.416 228.868 139.284 228.823 139.164C218.705 110.561 200.542 90.0841 176.384 75.6906C176.317 75.6374 176.236 75.6152 176.152 75.6157ZM120.795 156.414C124.081 163.46 131.909 166.8 138.163 163.884C144.515 160.922 146.887 152.826 143.601 145.779C140.438 138.732 132.636 135.32 126.235 138.305C119.883 141.267 117.508 149.365 120.795 156.414ZM162.958 136.753C166.244 143.799 174.072 147.139 180.323 144.224C186.724 141.239 189.05 133.165 185.765 126.118C182.599 119.072 174.797 115.661 168.395 118.645C162.044 121.607 159.671 129.703 162.958 136.753Z" fill="white"/>
</g>
<defs>
<clipPath id="clip0_259_884">
<rect width="220" height="200" rx="20" fill="white"/>
</clipPath>
</defs>
</svg>
