<svg width="30" height="30" viewBox="0 0 30 30" fill="none" xmlns="http://www.w3.org/2000/svg">
<path d="M10.0119 15.7417C10.0119 16.825 10.8036 17.7071 11.7644 17.7071C12.7405 17.7071 13.5168 16.825 13.5168 15.7417C13.5322 14.6661 12.7481 13.7763 11.7644 13.7763C10.7882 13.7763 10.0119 14.6584 10.0119 15.7417Z" fill="#b6b6b6"/>
<path d="M16.4913 15.7417C16.4913 16.825 17.283 17.7071 18.2438 17.7071C19.2277 17.7071 19.9963 16.825 19.9963 15.7417C20.0116 14.6661 19.2276 13.7763 18.2438 13.7763C17.2677 13.7763 16.4913 14.6584 16.4913 15.7417Z" fill="#b6b6b6"/>
<path fill-rule="evenodd" clip-rule="evenodd" d="M29.2553 6.96307C28.582 4.26136 25.7371 1.41648 23.0354 0.743182C20.3844 0.253381 17.6944 0.00463799 14.9985 0C12.3026 0.00480591 9.61263 0.253547 6.96155 0.743182C4.25984 1.41648 1.41666 4.26136 0.743367 6.96307C-0.250393 12.2749 -0.250393 17.7251 0.743367 23.0369C1.41666 25.7386 4.25984 28.5852 6.96155 29.2568C9.61263 29.7465 12.3026 29.9952 14.9985 30C15.7598 30 16.5212 29.9801 17.2826 29.9403C19.2127 29.8347 21.1341 29.607 23.0354 29.2585C25.7439 28.5869 28.582 25.7472 29.2553 23.0386C29.7615 20.302 30.0103 17.524 29.9985 14.7409C29.9792 12.1315 29.7306 9.52888 29.2553 6.96307ZM17.7865 7.56986C19.18 7.81052 20.5128 8.23069 21.7557 8.80095C21.7664 8.80559 21.7756 8.81333 21.781 8.82414C23.983 12.0632 25.0707 15.7169 24.6641 19.9232C24.6625 19.941 24.6533 19.9572 24.6387 19.968C22.9708 21.1929 21.3551 21.9366 19.7618 22.4294C19.7364 22.4372 19.7088 22.4279 19.6934 22.4062C19.3252 21.894 18.9909 21.3539 18.698 20.7867C18.6811 20.7535 18.6965 20.7132 18.7311 20.7001C19.2622 20.4997 19.7672 20.2598 20.2529 19.9758C20.2913 19.9534 20.2937 19.8984 20.2583 19.8721C20.1553 19.7955 20.0531 19.715 19.9555 19.6346C19.937 19.6199 19.9124 19.6168 19.8917 19.6268C16.738 21.0839 13.2831 21.0839 10.0918 19.6268C10.071 19.6176 10.0464 19.6207 10.0287 19.6354C9.93112 19.7158 9.82886 19.7956 9.72664 19.8721C9.69126 19.8985 9.69434 19.9534 9.73277 19.9759C10.2186 20.2544 10.7235 20.4997 11.2539 20.7009C11.2885 20.714 11.3046 20.7535 11.2877 20.7867C11.001 21.3547 10.6667 21.8948 10.2916 22.407C10.2755 22.4279 10.2486 22.4372 10.2232 22.4295C8.63757 21.9366 7.02189 21.193 5.35399 19.9681C5.34017 19.9572 5.33015 19.9402 5.32863 19.9224C4.9889 16.2841 5.68146 12.6002 8.20945 8.82338C8.21558 8.81333 8.2248 8.80559 8.23557 8.80095C9.47923 8.22989 10.812 7.80972 12.2047 7.56986C12.2301 7.56597 12.2555 7.57759 12.2685 7.60002C12.4407 7.9049 12.6375 8.29566 12.7705 8.6152C14.2385 8.3908 15.7297 8.3908 17.2285 8.6152C17.3614 8.30259 17.5513 7.9049 17.7227 7.60002C17.7358 7.57683 17.7611 7.56521 17.7865 7.56986Z" fill="#b6b6b6"/>
</svg>
