<svg width="134" height="125" viewBox="0 0 134 125" fill="none" xmlns="http://www.w3.org/2000/svg">
<path opacity="0.1" fill-rule="evenodd" clip-rule="evenodd" d="M90.1522 0.615713C86.319 0.638113 82.4662 0.852828 78.6095 1.26314C72.5894 1.90718 66.562 3.02671 60.5895 4.64913C60.4111 4.69711 60.2812 4.84926 60.2645 5.04023C60.0748 7.54203 60.0468 10.7082 60.1302 13.1461C49.6965 16.2322 39.9935 20.7568 31.1224 26.6726C30.4521 26.0586 29.6955 25.4109 28.9076 24.7637C27.5412 23.6392 26.0763 22.515 24.7774 21.5881C24.6218 21.481 24.4218 21.4827 24.269 21.5857C15.9328 27.3718 8.53806 34.1494 2.17665 41.6394C2.12204 41.7036 2.08421 41.7811 2.07763 41.8652C-2.91458 74.1111 3.75695 100.182 17.0074 122.825C17.0701 122.937 17.1879 123.016 17.3114 123.046C31.8796 125.956 44.6491 125.892 56.4637 124.286C56.6529 124.261 56.7982 124.12 56.839 123.935C57.7268 119.462 58.2648 114.935 58.4052 110.37C58.406 110.289 58.3881 110.213 58.3542 110.147C58.3135 110.068 58.2481 110.003 58.1692 109.962C58.0959 109.926 58.0122 109.905 57.9235 109.911C53.8641 110.212 49.8332 110.15 45.827 109.809C45.5078 109.782 45.3202 109.433 45.4721 109.154C45.9056 108.346 46.3296 107.517 46.7191 106.698C46.7903 106.549 46.9401 106.454 47.1031 106.449C72.2913 106.248 94.7706 95.7661 110.869 76.7142C110.948 76.6207 111.063 76.5638 111.184 76.56C111.226 76.5583 111.267 76.5637 111.31 76.572C111.727 76.6805 112.15 76.7864 112.577 76.8866C113.051 76.9967 113.527 77.1026 114.001 77.1984C114.309 77.2625 114.462 77.6281 114.281 77.8888C112.899 79.8824 111.426 81.792 109.856 83.6304C109.268 84.32 108.668 84.9979 108.053 85.6653C107.569 86.1906 107.077 86.7086 106.576 87.2206C106.39 87.4098 106.411 87.7203 106.621 87.8832C107.723 88.7361 108.844 89.5596 109.979 90.3548C112.578 92.18 115.263 93.859 118.015 95.4012C118.106 95.4537 118.213 95.4709 118.313 95.4522L118.385 95.4328C118.436 95.4127 118.487 95.3855 118.528 95.3452C127.401 87.3039 135.658 77.563 142.794 64.533C142.856 64.4162 142.868 64.2836 142.823 64.1638C132.705 35.5606 114.542 15.0841 90.3844 0.690624C90.3173 0.637364 90.2365 0.615157 90.1522 0.615713ZM34.795 81.4139C38.0808 88.4604 45.9091 91.7998 52.1627 88.8837C58.5147 85.9217 60.8872 77.8256 57.6013 70.7791C54.4384 63.7317 46.6364 60.3202 40.2352 63.3051C33.8832 66.2671 31.5078 74.3645 34.795 81.4139ZM76.9582 61.7529C80.244 68.7994 88.0723 72.1388 94.323 69.224C100.724 66.2391 103.05 58.1646 99.7645 51.1181C96.5987 44.0721 88.7967 40.6605 82.3955 43.6454C76.0435 46.6074 73.671 54.7035 76.9582 61.7529Z" fill="#131217"/>
</svg>
