<svg width="15" height="10" viewBox="0 0 15 10" fill="none" xmlns="http://www.w3.org/2000/svg">
<g clip-path="url(#clip0_634_170)">
<path d="M1.32122 2.1452C1.26836 2.20784 1.24414 2.27824 1.25119 2.3488C1.25824 2.41936 1.29629 2.48737 1.36122 2.54549L6.98622 7.58299C7.04374 7.63446 7.12052 7.67653 7.20999 7.70558C7.29947 7.73463 7.39896 7.74981 7.49997 7.74981C7.60097 7.74981 7.70047 7.73463 7.78994 7.70558C7.87941 7.67653 7.9562 7.63446 8.01372 7.58299L13.6387 2.54549C13.7036 2.48735 13.7416 2.41932 13.7486 2.34876C13.7556 2.2782 13.7313 2.20779 13.6784 2.14517C13.6255 2.08255 13.5459 2.0301 13.4484 1.99349C13.3508 1.95689 13.239 1.93752 13.125 1.9375L1.87497 1.9375C1.76088 1.93749 1.64896 1.95684 1.55135 1.99345C1.45374 2.03006 1.37415 2.08254 1.32122 2.1452Z" fill="white"/>
</g>
<defs>
<clipPath id="clip0_634_170">
<rect width="9.3" height="15" fill="white" transform="translate(15) rotate(90)"/>
</clipPath>
</defs>
</svg>