<svg width="46" height="46" viewBox="0 0 46 46" fill="none" xmlns="http://www.w3.org/2000/svg">
<rect width="46" height="46" rx="23" fill="url(#paint0_linear_6_22608)"/>
<rect width="46" height="46" rx="23" fill="url(#paint1_linear_6_22608)"/>
<path fill-rule="evenodd" clip-rule="evenodd" d="M11 23.0016C11 32.0601 13.118 34.0016 23 34.0016C32.882 34.0016 35 32.0601 35 23.0016C35 20.512 34.84 18.56 34.4028 17.0381C33.2835 18.1604 31.8709 19.5099 30.3367 20.7119C28.1608 22.4167 25.5255 24.0016 23 24.0016C20.4745 24.0016 17.8392 22.4167 15.6633 20.7119C14.1291 19.5099 12.7165 18.1604 11.5972 17.0381C11.16 18.56 11 20.512 11 23.0016ZM19 27.0016C18.4477 27.0016 18 27.4493 18 28.0016C18 28.5539 18.4477 29.0016 19 29.0016H27C27.5523 29.0016 28 28.5539 28 28.0016C28 27.4493 27.5523 27.0016 27 27.0016H19Z" fill="white"/>
<path d="M29.1028 19.1359C30.8049 17.8023 32.3591 16.2673 33.5308 15.0731C31.9426 12.6726 28.8159 12 22.9995 12C17.1831 12 14.0564 12.6726 12.4681 15.0731C13.6399 16.2673 15.1941 17.8023 16.8962 19.1359C19.0402 20.8157 21.205 22 22.9995 22C24.794 22 26.9587 20.8157 29.1028 19.1359Z" fill="white"/>
<defs>
<linearGradient id="paint0_linear_6_22608" x1="23" y1="26.895" x2="23" y2="0.992272" gradientUnits="userSpaceOnUse">
<stop stop-color="#020411"/>
<stop offset="1" stop-color="#050D42"/>
</linearGradient>
<linearGradient id="paint1_linear_6_22608" x1="0" y1="23" x2="46" y2="23" gradientUnits="userSpaceOnUse">
<stop stop-color="#2069FF"/>
<stop offset="1" stop-color="#003CB7"/>
</linearGradient>
</defs>
</svg>
