<svg width="30" height="30" viewBox="0 0 30 30" fill="none" xmlns="http://www.w3.org/2000/svg">
<path d="M17.962 15.0102C17.962 15.5965 17.7881 16.1696 17.4624 16.6571C17.1367 17.1445 16.6738 17.5244 16.1322 17.7488C15.5905 17.9732 14.9946 18.0319 14.4196 17.9175C13.8446 17.8031 13.3164 17.5208 12.9019 17.1062C12.4874 16.6917 12.205 16.1635 12.0907 15.5885C11.9763 15.0135 12.035 14.4175 12.2594 13.8759C12.4837 13.3342 12.8636 12.8713 13.3511 12.5456C13.8385 12.2199 14.4116 12.046 14.9978 12.046C15.3873 12.0454 15.773 12.1216 16.133 12.2703C16.4929 12.419 16.8199 12.6373 17.0953 12.9127C17.3707 13.1881 17.589 13.5151 17.7377 13.8751C17.8864 14.235 17.9626 14.6208 17.962 15.0102Z" fill="#b6b6b6"/>
<path d="M18.7869 7.52216H11.2087C10.2279 7.52261 9.28738 7.91246 8.59383 8.60603C7.90027 9.2996 7.51044 10.2402 7.50999 11.221V18.8028C7.50999 19.2885 7.60567 19.7694 7.79157 20.2181C7.97747 20.6667 8.24995 21.0744 8.59343 21.4177C8.93691 21.7611 9.34468 22.0334 9.79342 22.2191C10.2422 22.4048 10.7231 22.5002 11.2087 22.5H18.7904C19.2759 22.4998 19.7566 22.4039 20.205 22.2179C20.6535 22.0319 21.0609 21.7594 21.4041 21.4159C21.7472 21.0725 22.0193 20.6648 22.2049 20.2161C22.3905 19.7675 22.4859 19.2867 22.4857 18.8011V11.221C22.4853 10.2402 22.0954 9.2996 21.4019 8.60603C20.7083 7.91246 19.7678 7.52261 18.7869 7.52216ZM14.9978 19.8597C14.0397 19.859 13.1033 19.5743 12.3069 19.0415C11.5105 18.5088 10.8899 17.7519 10.5236 16.8666C10.1572 15.9812 10.0616 15.0071 10.2486 14.0674C10.4357 13.1277 10.8972 12.2645 11.5747 11.587C12.2522 10.9095 13.1153 10.448 14.055 10.2609C14.9947 10.0738 15.9688 10.1695 16.8541 10.5358C17.7395 10.9022 18.4963 11.5228 19.029 12.3192C19.5618 13.1156 19.8465 14.0521 19.8471 15.0102C19.8471 15.6471 19.7217 16.2777 19.478 16.866C19.2343 17.4544 18.8771 17.989 18.4268 18.4393C17.9765 18.8896 17.4419 19.2468 16.8536 19.4905C16.2652 19.7342 15.6347 19.8597 14.9978 19.8597ZM19.8744 11.3591C19.6384 11.3591 19.4077 11.2891 19.2115 11.158C19.0153 11.0269 18.8624 10.8405 18.7721 10.6225C18.6818 10.4045 18.6582 10.1646 18.7042 9.93313C18.7502 9.70168 18.8639 9.48907 19.0307 9.3222C19.1976 9.15533 19.4102 9.04169 19.6416 8.99565C19.8731 8.94961 20.113 8.97324 20.331 9.06355C20.549 9.15386 20.7354 9.30679 20.8665 9.50301C20.9976 9.69923 21.0676 9.92992 21.0676 10.1659C21.0676 10.4824 20.9419 10.7858 20.7181 11.0096C20.4943 11.2334 20.1909 11.3591 19.8744 11.3591Z" fill="#b6b6b6"/>
<path d="M29.2545 6.96307C28.5812 4.26136 25.7364 1.41648 23.0348 0.743182C20.3838 0.253381 17.6939 0.00463799 14.9981 0C12.3022 0.00480591 9.61236 0.253547 6.96135 0.743182C4.25972 1.41648 1.41662 4.26136 0.743346 6.96307C-0.250386 12.2749 -0.250386 17.7251 0.743346 23.0369C1.41662 25.7386 4.25972 28.5852 6.96135 29.2568C9.61236 29.7465 12.3022 29.9952 14.9981 30C15.7594 30 16.5207 29.9801 17.2821 29.9403C19.2121 29.8347 21.1335 29.607 23.0348 29.2585C25.7432 28.5869 28.5812 25.7472 29.2545 23.0386C29.7607 20.302 30.0095 17.524 29.9976 14.7409C29.9784 12.1315 29.7297 9.52888 29.2545 6.96307ZM24.3728 18.7994C24.371 20.2803 23.7819 21.7 22.7348 22.7472C21.6877 23.7943 20.268 24.3834 18.7872 24.3852H11.209C9.72811 24.3834 8.30843 23.7943 7.26131 22.7472C6.21419 21.7 5.62513 20.2803 5.62332 18.7994V11.221C5.62513 9.74013 6.21419 8.32041 7.26131 7.27326C8.30843 6.22611 9.72811 5.63703 11.209 5.63523H18.7872C20.268 5.63703 21.6877 6.22611 22.7348 7.27326C23.7819 8.32041 24.371 9.74013 24.3728 11.221V18.7994Z" fill="#b6b6b6"/>
</svg>
