<svg width="220" height="200" viewBox="0 0 220 200" fill="none" xmlns="http://www.w3.org/2000/svg">
<g clip-path="url(#clip0_4_49684)">
<rect width="220" height="200" rx="20" fill="#EDF2FA"/>
<path opacity="0.2" fill-rule="evenodd" clip-rule="evenodd" d="M227.251 166.422C231.033 156.031 230.539 144.565 225.878 134.538L201.964 83.2542C197.279 73.2385 188.813 65.49 178.422 61.7082C168.032 57.9263 156.566 58.42 146.539 63.0808L95.2547 86.9948C85.2391 91.6801 77.4905 100.146 73.7087 110.537C69.9269 120.927 70.4205 132.394 75.0813 142.421L98.9954 193.705C103.681 203.72 112.147 211.469 122.537 215.251C132.928 219.032 144.394 218.539 154.421 213.878L205.705 189.964C215.721 185.279 223.469 176.812 227.251 166.422ZM152.491 75.8505L101.208 99.7646C94.5714 102.863 89.4367 108.469 86.9318 115.351C84.427 122.233 84.7568 129.828 87.8489 136.467L111.774 187.774C113.306 191.061 115.471 194.013 118.145 196.462C120.819 198.912 123.949 200.811 127.357 202.05C130.765 203.29 134.384 203.846 138.006 203.686C141.629 203.527 145.185 202.655 148.471 201.121L199.778 177.196C203.063 175.663 206.013 173.497 208.461 170.823C210.909 168.149 212.806 165.019 214.045 161.612C215.283 158.205 215.838 154.587 215.678 150.966C215.519 147.344 214.647 143.789 213.113 140.505L189.194 89.2092C186.096 82.573 180.49 77.4383 173.608 74.9334C166.725 72.4286 159.13 72.7584 152.491 75.8505ZM165.781 171.297C159.295 174.316 152.059 175.344 144.989 174.252C137.919 173.16 131.331 169.996 126.058 165.161C120.785 160.326 117.063 154.036 115.364 147.087C113.665 140.137 114.064 132.84 116.511 126.117C118.958 119.394 123.343 113.547 129.111 109.316C134.88 105.085 141.774 102.658 148.921 102.344C156.069 102.029 163.149 103.84 169.267 107.549C175.385 111.257 180.267 116.696 183.295 123.177C185.305 127.487 186.446 132.15 186.653 136.901C186.86 141.651 186.13 146.396 184.504 150.864C182.878 155.333 180.387 159.437 177.175 162.943C173.962 166.448 170.091 169.287 165.781 171.297ZM171.958 98.3838C170.361 99.1284 168.579 99.3828 166.838 99.1148C165.096 98.8467 163.473 98.0683 162.174 96.8778C160.875 95.6874 159.958 94.1385 159.539 92.4269C159.121 90.7154 159.219 88.9181 159.821 87.2623C160.424 85.6065 161.504 84.1666 162.925 83.1247C164.346 82.0828 166.044 81.4856 167.804 81.4088C169.565 81.3319 171.309 81.7788 172.815 82.6929C174.321 83.607 175.523 84.9473 176.267 86.5442C177.266 88.6857 177.373 91.1361 176.565 93.3565C175.757 95.5768 174.1 97.3852 171.958 98.3838ZM170.538 129.126C172.387 133.094 173.019 137.52 172.354 141.847C171.688 146.173 169.754 150.205 166.796 153.433C163.839 156.66 159.991 158.938 155.739 159.978C151.487 161.019 147.022 160.775 142.909 159.278C138.795 157.781 135.218 155.098 132.63 151.567C130.041 148.037 128.558 143.819 128.367 139.445C128.176 135.072 129.286 130.741 131.557 126.998C133.828 123.256 137.157 120.271 141.125 118.421C143.758 117.187 146.609 116.486 149.514 116.357C152.419 116.227 155.321 116.673 158.054 117.667C160.786 118.662 163.296 120.186 165.438 122.152C167.58 124.119 169.313 126.489 170.538 129.126Z" fill="#131217"/>
</g>
<defs>
<clipPath id="clip0_4_49684">
<rect width="220" height="200" rx="20" fill="white"/>
</clipPath>
</defs>
</svg>
