<svg width="220" height="200" viewBox="0 0 220 200" fill="none" xmlns="http://www.w3.org/2000/svg">
<g clip-path="url(#clip0_259_865)">
<rect width="220" height="200" rx="20" fill="white"/>
<g filter="url(#filter0_f_259_865)">
<path d="M-62 92.3912L23.7391 -51L122.782 42.1304V111.609H23.7391L-62 92.3912Z" fill="#8F0AF9"/>
<path d="M59.2188 92.3912L144.958 -51L244.001 42.1304V111.609H144.958L59.2188 92.3912Z" fill="#FC01D8" stroke="#D005E5"/>
<path d="M56.2578 210.653L141.997 67.2617L241.04 160.392V229.87H141.997L56.2578 210.653Z" fill="#FE0A65"/>
<path d="M-23.5625 172.219L62.1766 28.8281L161.22 121.958V191.437H62.1766L-23.5625 172.219Z" fill="#FE5312"/>
<path d="M-35.3906 252.044L50.3484 108.652L149.392 201.783V271.261H50.3484L-35.3906 252.044Z" fill="#FFC101"/>
</g>
<path opacity="0.3" fill-rule="evenodd" clip-rule="evenodd" d="M227.249 166.422C231.031 156.031 230.537 144.565 225.877 134.538L201.962 83.2542C197.277 73.2385 188.811 65.49 178.42 61.7082C168.03 57.9263 156.564 58.42 146.537 63.0808L95.2528 86.9948C85.2371 91.6801 77.4886 100.146 73.7068 110.537C69.9249 120.927 70.4186 132.394 75.0794 142.421L98.9934 193.705C103.679 203.72 112.145 211.469 122.536 215.251C132.926 219.032 144.392 218.539 154.419 213.878L205.703 189.964C215.719 185.279 223.467 176.812 227.249 166.422ZM152.489 75.8505L101.206 99.7646C94.5694 102.863 89.4348 108.469 86.9299 115.351C84.425 122.233 84.7549 129.828 87.847 136.467L111.772 187.774C113.304 191.061 115.469 194.013 118.143 196.462C120.817 198.912 123.947 200.811 127.355 202.05C130.763 203.29 134.382 203.846 138.004 203.686C141.627 203.527 145.183 202.655 148.469 201.121L199.776 177.196C203.061 175.663 206.011 173.497 208.459 170.823C210.907 168.149 212.804 165.019 214.043 161.612C215.281 158.205 215.836 154.587 215.676 150.966C215.517 147.344 214.645 143.789 213.111 140.505L189.192 89.2092C186.094 82.573 180.488 77.4383 173.606 74.9334C166.723 72.4286 159.128 72.7584 152.489 75.8505ZM165.779 171.297C159.293 174.316 152.058 175.344 144.987 174.252C137.917 173.16 131.329 169.996 126.056 165.161C120.783 160.326 117.061 154.036 115.362 147.087C113.663 140.137 114.062 132.84 116.509 126.117C118.956 119.394 123.341 113.547 129.109 109.316C134.878 105.085 141.772 102.658 148.919 102.344C156.067 102.029 163.147 103.84 169.265 107.549C175.383 111.257 180.265 116.696 183.293 123.177C185.303 127.487 186.444 132.15 186.651 136.901C186.859 141.651 186.128 146.396 184.502 150.864C182.876 155.333 180.385 159.437 177.173 162.943C173.96 166.448 170.089 169.287 165.779 171.297ZM171.956 98.3838C170.359 99.1284 168.577 99.3828 166.836 99.1148C165.094 98.8467 163.471 98.0683 162.172 96.8778C160.873 95.6874 159.956 94.1385 159.537 92.4269C159.119 90.7154 159.217 88.9181 159.819 87.2623C160.422 85.6065 161.502 84.1666 162.923 83.1247C164.344 82.0828 166.042 81.4856 167.803 81.4088C169.563 81.3319 171.307 81.7788 172.813 82.6929C174.319 83.607 175.521 84.9473 176.266 86.5442C177.264 88.6857 177.371 91.1361 176.563 93.3565C175.755 95.5768 174.098 97.3852 171.956 98.3838ZM170.536 129.126C172.386 133.094 173.018 137.52 172.352 141.847C171.686 146.173 169.752 150.205 166.794 153.433C163.837 156.66 159.989 158.938 155.737 159.978C151.485 161.019 147.02 160.775 142.907 159.278C138.793 157.781 135.216 155.098 132.628 151.567C130.039 148.037 128.556 143.819 128.365 139.445C128.174 135.072 129.284 130.741 131.555 126.998C133.826 123.256 137.155 120.271 141.123 118.421C143.756 117.187 146.607 116.486 149.512 116.357C152.417 116.227 155.319 116.673 158.052 117.667C160.784 118.662 163.294 120.186 165.436 122.152C167.578 124.119 169.311 126.489 170.536 129.126Z" fill="white"/>
</g>
<defs>
<filter id="filter0_f_259_865" x="-142" y="-131.79" width="466.5" height="483.051" filterUnits="userSpaceOnUse" color-interpolation-filters="sRGB">
<feFlood flood-opacity="0" result="BackgroundImageFix"/>
<feBlend mode="normal" in="SourceGraphic" in2="BackgroundImageFix" result="shape"/>
<feGaussianBlur stdDeviation="40" result="effect1_foregroundBlur_259_865"/>
</filter>
<clipPath id="clip0_259_865">
<rect width="220" height="200" rx="20" fill="white"/>
</clipPath>
</defs>
</svg>
