<svg width="149" height="141" viewBox="0 0 149 141" fill="none" xmlns="http://www.w3.org/2000/svg">
<path opacity="0.2" fill-rule="evenodd" clip-rule="evenodd" d="M156.251 107.422C160.033 97.0313 159.539 85.565 154.878 75.538L130.964 24.2542C126.279 14.2385 117.813 6.49 107.422 2.70817C97.0318 -1.07365 85.5656 -0.580035 75.5386 4.08078L24.2547 27.9948C14.2391 32.6801 6.49055 41.1464 2.70872 51.5369C-1.07311 61.9274 -0.579481 73.3937 4.08134 83.4207L27.9954 134.705C32.6806 144.72 41.147 152.469 51.5375 156.251C61.928 160.032 73.3942 159.539 83.4213 154.878L134.705 130.964C144.721 126.279 152.469 117.812 156.251 107.422ZM81.4914 16.8505L30.2075 40.7646C23.5714 43.8628 18.4367 49.4689 15.9318 56.351C13.427 63.2331 13.7568 70.8281 16.8489 77.4671L40.7737 128.774C42.3062 132.061 44.4713 135.013 47.1451 137.462C49.819 139.912 52.9492 141.811 56.3571 143.05C59.765 144.29 63.3837 144.846 67.0064 144.686C70.6292 144.527 74.1851 143.655 77.4709 142.121L128.778 118.196C132.063 116.663 135.013 114.497 137.461 111.823C139.909 109.149 141.806 106.019 143.045 102.612C144.283 99.2051 144.838 95.5875 144.678 91.9658C144.519 88.3441 143.647 84.7894 142.113 81.5045L118.194 30.2092C115.096 23.573 109.49 18.4383 102.608 15.9334C95.7254 13.4286 88.1304 13.7584 81.4914 16.8505ZM94.7811 112.297C88.295 115.316 81.0595 116.344 73.989 115.252C66.9186 114.16 60.3306 110.996 55.0576 106.161C49.7846 101.326 46.0633 95.0361 44.3641 88.0865C42.6648 81.137 43.0639 73.8396 45.5108 67.1168C47.9577 60.394 52.3426 54.5474 58.1114 50.316C63.8802 46.0846 70.7739 43.6583 77.9212 43.3437C85.0686 43.0291 92.1488 44.8404 98.267 48.5486C104.385 52.2569 109.267 57.6956 112.295 64.1774C114.305 68.4869 115.446 73.1501 115.653 77.9006C115.86 82.6511 115.13 87.396 113.504 91.8643C111.878 96.3325 109.387 100.437 106.175 103.943C102.962 107.448 99.0906 110.287 94.7811 112.297ZM100.958 39.3838C99.3613 40.1284 97.5794 40.3828 95.8378 40.1148C94.0963 39.8467 92.4733 39.0683 91.1742 37.8778C89.8751 36.6874 88.9581 35.1385 88.5393 33.4269C88.1205 31.7154 88.2186 29.9181 88.8213 28.2623C89.4239 26.6065 90.5041 25.1666 91.9251 24.1247C93.3461 23.0828 95.0441 22.4856 96.8045 22.4088C98.5648 22.3319 100.309 22.7788 101.815 23.6929C103.321 24.607 104.523 25.9473 105.267 27.5442C106.266 29.6857 106.373 32.1361 105.565 34.3565C104.757 36.5768 103.1 38.3852 100.958 39.3838ZM99.5375 70.1264C101.387 74.0937 102.019 78.5205 101.354 82.847C100.688 87.1735 98.7538 91.2053 95.7964 94.4327C92.839 97.6601 88.9911 99.938 84.7391 100.978C80.4871 102.019 76.0221 101.775 71.9086 100.278C67.7952 98.7808 64.218 96.0975 61.6296 92.5673C59.0412 89.0372 57.5577 84.8187 57.3668 80.4455C57.1759 76.0722 58.286 71.7405 60.5569 67.9982C62.8278 64.2559 66.1574 61.271 70.1247 59.421C72.7581 58.1875 75.609 57.4859 78.5141 57.3566C81.4191 57.2272 84.3211 57.6726 87.0537 58.6672C89.7863 59.6618 92.2956 61.186 94.4379 63.1524C96.5801 65.1188 98.3131 67.4887 99.5375 70.1264Z" fill="white"/>
</svg>
