<svg width="30" height="30" viewBox="0 0 30 30" fill="none" xmlns="http://www.w3.org/2000/svg">
<path fill-rule="evenodd" clip-rule="evenodd" d="M29.2553 6.96307C28.582 4.26136 25.7371 1.41648 23.0354 0.743182C20.3844 0.253381 17.6944 0.00463799 14.9985 0C12.3026 0.00480591 9.61263 0.253547 6.96155 0.743182C4.25984 1.41648 1.41666 4.26136 0.743367 6.96307C-0.250393 12.2749 -0.250393 17.7251 0.743367 23.0369C1.41666 25.7386 4.25984 28.5852 6.96155 29.2568C9.61263 29.7465 12.3026 29.9952 14.9985 30C15.7598 30 16.5212 29.9801 17.2826 29.9403C19.2127 29.8347 21.1341 29.607 23.0354 29.2585C25.7439 28.5869 28.582 25.7472 29.2553 23.0386C29.7615 20.302 30.0103 17.524 29.9985 14.7409C29.9792 12.1315 29.7306 9.52888 29.2553 6.96307ZM11.2794 9C11.2794 9.44501 11.1465 9.88002 10.8975 10.25C10.6486 10.62 10.2947 10.9084 9.88073 11.0787C9.46673 11.249 9.01119 11.2936 8.57169 11.2068C8.1322 11.1199 7.7285 10.9057 7.41164 10.591C7.09479 10.2763 6.879 9.87541 6.79158 9.43895C6.70416 9.0025 6.74903 8.5501 6.92051 8.13896C7.09199 7.72783 7.38239 7.37643 7.75497 7.12919C8.12756 6.88196 8.5656 6.75 9.0137 6.75C9.61459 6.75 10.1909 6.98705 10.6158 7.40901C11.0407 7.83097 11.2794 8.40326 11.2794 9ZM10.7658 12.75V22.6905C10.7662 22.7638 10.752 22.8365 10.724 22.9044C10.696 22.9722 10.6548 23.034 10.6027 23.0859C10.5507 23.1379 10.4888 23.1792 10.4206 23.2074C10.3524 23.2355 10.2793 23.25 10.2054 23.25H7.81744C7.74359 23.2502 7.67044 23.2359 7.60218 23.2079C7.53392 23.18 7.4719 23.1389 7.41968 23.087C7.36747 23.0352 7.32609 22.9736 7.29792 22.9058C7.26975 22.838 7.25535 22.7653 7.25555 22.692V12.75C7.25555 12.602 7.31475 12.4601 7.42013 12.3554C7.5255 12.2508 7.66842 12.192 7.81744 12.192H10.2054C10.3542 12.1924 10.4967 12.2514 10.6018 12.356C10.7068 12.4606 10.7658 12.6023 10.7658 12.75ZM23.248 22.737L23.248 17.8885C23.2482 15.79 23.2484 12.027 19.1668 12.027C17.3135 12.027 16.445 12.7005 15.859 13.5735V12.7065C15.859 12.5704 15.8046 12.44 15.7077 12.3438C15.6108 12.2475 15.4794 12.1935 15.3424 12.1935H12.8623C12.7945 12.1935 12.7274 12.2068 12.6648 12.2326C12.6022 12.2584 12.5454 12.2962 12.4976 12.3438C12.4497 12.3915 12.4118 12.4481 12.386 12.5103C12.3602 12.5725 12.347 12.6392 12.3472 12.7065V22.737C12.347 22.8043 12.3602 22.871 12.386 22.9332C12.4118 22.9954 12.4497 23.052 12.4976 23.0997C12.5454 23.1473 12.6022 23.1851 12.6648 23.2109C12.7274 23.2367 12.7945 23.25 12.8623 23.25H15.3424C15.4781 23.248 15.6076 23.1931 15.7028 23.0971C15.7981 23.0011 15.8515 22.8718 15.8514 22.737V17.358C15.9149 16.635 16.2366 15.0255 17.815 15.0255C19.7026 15.0255 19.6653 17.0439 19.6495 17.8944C19.6483 17.962 19.6472 18.0223 19.6472 18.0735V22.737C19.647 22.8044 19.6602 22.8712 19.6861 22.9335C19.712 22.9959 19.75 23.0525 19.798 23.1002C19.846 23.1479 19.9031 23.1856 19.9658 23.2113C20.0286 23.2371 20.0958 23.2502 20.1637 23.25H22.7315C22.7994 23.2502 22.8666 23.2371 22.9294 23.2113C22.9922 23.1856 23.0492 23.1479 23.0972 23.1002C23.1452 23.0525 23.1832 22.9959 23.2091 22.9335C23.235 22.8712 23.2482 22.8044 23.248 22.737Z" fill="white"/>
</svg>
