<svg width="159" height="109" viewBox="0 0 159 109" fill="none" xmlns="http://www.w3.org/2000/svg">
<path opacity="0.1" d="M28.8397 15.5132C30.4845 19.0451 30.6589 23.0858 29.3245 26.7463C27.9901 30.4068 25.2563 33.3874 21.7243 35.0322C18.1924 36.677 14.1517 36.8514 10.4912 35.517C6.83068 34.1826 3.85017 31.4487 2.20535 27.9168C0.560533 24.3849 0.386136 20.3442 1.72053 16.6837C3.05492 13.0231 5.78879 10.0426 9.32073 8.39782C12.8527 6.753 16.8933 6.5786 20.5539 7.913C24.2144 9.24739 27.1949 11.9813 28.8397 15.5132ZM40.0418 38.4934L13.4137 50.9103L52.2786 134.256L78.9067 121.839L40.0418 38.4934ZM82.1143 18.8747L55.6193 31.2295L94.4842 114.576L120.713 102.345L100.318 58.6082C88.9567 34.2435 119.655 17.1729 132.072 43.8011L152.467 87.5378L178.762 75.2761L154.146 22.4858C134.993 -18.5881 88.708 4.85887 87.0631 30.1827L82.1143 18.8747Z" fill="#131217"/>
</svg>
