<svg width="14" height="16" viewBox="0 0 14 16" fill="none" xmlns="http://www.w3.org/2000/svg">
<path d="M9.00118 6.99872C9.00118 7.39414 8.88381 7.78068 8.6639 8.10947C8.444 8.43825 8.13144 8.6945 7.76575 8.84582C7.40007 8.99714 6.99767 9.03673 6.60946 8.95959C6.22125 8.88245 5.86465 8.69203 5.58476 8.41243C5.30488 8.13282 5.11427 7.77659 5.03705 7.38876C4.95983 7.00094 4.99946 6.59895 5.15094 6.23363C5.30241 5.86831 5.55892 5.55606 5.88803 5.33638C6.21714 5.11669 6.60407 4.99944 6.99989 4.99944C7.53067 4.99944 8.0397 5.21008 8.41502 5.58501C8.79033 5.95995 9.00118 6.46848 9.00118 6.99872ZM11.9611 12.1809L8.90112 15.2108C8.65284 15.4609 8.35746 15.6593 8.032 15.7948C7.70655 15.9303 7.35747 16 7.0049 16C6.65233 16 6.30324 15.9303 5.97779 15.7948C5.65234 15.6593 5.35695 15.4609 5.10867 15.2108L2.0507 12.1969C0.737606 10.8445 0.00224585 9.03514 5.13571e-06 7.1511C-0.00223558 5.26706 0.728819 3.45594 2.03869 2.10047C2.68247 1.436 3.45342 0.907634 4.30571 0.546792C5.158 0.18595 6.07422 0 6.99989 0C7.92556 0 8.84178 0.18595 9.69407 0.546792C10.5464 0.907634 11.3173 1.436 11.9611 2.10047C13.269 3.45302 14 5.2601 14 7.14067C14 9.02124 13.269 10.8283 11.9611 12.1809ZM11.0025 6.99872C11.0025 6.20788 10.7677 5.4348 10.3279 4.77724C9.88811 4.11967 9.26299 3.60717 8.53161 3.30453C7.80024 3.00188 6.99545 2.9227 6.21903 3.07698C5.4426 3.23127 4.72941 3.6121 4.16964 4.17131C3.60986 4.73052 3.22866 5.44299 3.07422 6.21864C2.91977 6.99429 2.99904 7.79827 3.30198 8.52891C3.60493 9.25955 4.11795 9.88404 4.77617 10.3234C5.4344 10.7628 6.20826 10.9973 6.99989 10.9973C8.06144 10.9973 9.07952 10.576 9.83015 9.82614C10.5808 9.07626 11.0025 8.05921 11.0025 6.99872Z" fill="#1F69FF"/>
</svg>
