<svg width="25" height="24" viewBox="0 0 25 24" fill="none" xmlns="http://www.w3.org/2000/svg">
<path d="M19.9856 20.1545L13.7236 13.8925C13.2236 14.3185 12.6486 14.6482 11.9986 14.8815C11.3486 15.1149 10.6953 15.2315 10.0386 15.2315C8.43726 15.2315 7.08193 14.6772 5.97259 13.5685C4.86326 12.4599 4.30859 11.1049 4.30859 9.50353C4.30859 7.9022 4.86259 6.54653 5.97059 5.43653C7.07859 4.32653 8.43326 3.77087 10.0346 3.76953C11.6359 3.7682 12.9919 4.32287 14.1026 5.43353C15.2133 6.5442 15.7686 7.89987 15.7686 9.50053C15.7686 10.1952 15.6456 10.8675 15.3996 11.5175C15.1536 12.1675 14.8303 12.7235 14.4296 13.1855L20.6916 19.4465L19.9856 20.1545ZM10.0396 14.2305C11.3663 14.2305 12.4863 13.7739 13.3996 12.8605C14.3129 11.9472 14.7696 10.8269 14.7696 9.49953C14.7696 8.1722 14.3129 7.0522 13.3996 6.13953C12.4863 5.22687 11.3663 4.7702 10.0396 4.76953C8.71293 4.76887 7.59259 5.22553 6.67859 6.13953C5.76459 7.05353 5.30793 8.17353 5.30859 9.49953C5.30926 10.8255 5.76593 11.9455 6.67859 12.8595C7.59126 13.7735 8.71126 14.2302 10.0386 14.2295" fill="#696A7B"/>
</svg>
