<svg xmlns="http://www.w3.org/2000/svg" width="45" height="141" viewBox="0 0 45 141" fill="none"><circle cx="22.5" cy="22.5" r="22.5" fill="url(#paint0_linear_2228_1264)"></circle><path d="M31.54 32H13.69V29.12C13.69 25.58 15.22 23.75 19.45 22.34L24.61 20.66C26.41 20.03 27.07 19.43 27.07 18.11C27.07 16.58 26.23 15.71 22.93 15.71C19.24 15.71 18.13 16.82 18.13 19.04V19.43H13.72V19.04C13.72 15.14 16.39 11.6 23.08 11.6C29.14 11.6 31.6 14.36 31.6 18.17C31.6 21.74 29.26 23.51 25.69 24.5L21.31 25.7C19.36 26.3 18.43 26.87 18.43 28.46L23.68 27.95H31.54V32Z" fill="white"></path><path d="M22 55L22 140" stroke="url(#paint1_linear_2228_1264)" stroke-width="2" stroke-linecap="round"></path><defs><linearGradient id="paint0_linear_2228_1264" x1="0" y1="22.5" x2="45" y2="22.5" gradientUnits="userSpaceOnUse"><stop stop-color="#2069FF"></stop><stop offset="1" stop-color="#003CB7"></stop></linearGradient><linearGradient id="paint1_linear_2228_1264" x1="20.5" y1="55" x2="20.5" y2="140" gradientUnits="userSpaceOnUse"><stop stop-color="#2069FF" stop-opacity="0"></stop><stop offset="1" stop-color="#003CB7"></stop></linearGradient></defs></svg>