<svg xmlns="http://www.w3.org/2000/svg" width="45" height="141" viewBox="0 0 45 141" fill="none"><circle cx="22.5" cy="22.5" r="22.5" fill="url(#paint0_linear_2228_1265)"></circle><path d="M22.29 32.3C15.72 32.3 12.75 29.63 12.75 25.19V24.71H17.52V25.19C17.52 27.23 18.09 27.98 22.08 27.98C25.86 27.98 27.03 27.38 27.03 25.64C27.03 24.14 26.07 23.51 24.18 23.51H18.39V19.82H23.76C25.5 19.82 26.28 19.19 26.28 17.93C26.28 16.52 25.44 15.92 22.02 15.92C18.42 15.92 17.52 16.67 17.52 18.71V18.86H12.75V18.71C12.75 14.48 15.87 11.6 22.41 11.6C27.78 11.6 30.75 13.43 30.75 16.97C30.75 19.28 29.37 20.84 26.76 21.17V21.5C29.7 21.92 31.62 23.42 31.62 26.36C31.62 30.26 28.14 32.3 22.29 32.3Z" fill="white"></path><path d="M22 55L22 140" stroke="url(#paint1_linear_2228_1265)" stroke-width="2" stroke-linecap="round"></path><defs><linearGradient id="paint0_linear_2228_1265" x1="0" y1="22.5" x2="45" y2="22.5" gradientUnits="userSpaceOnUse"><stop stop-color="#2069FF"></stop><stop offset="1" stop-color="#003CB7"></stop></linearGradient><linearGradient id="paint1_linear_2228_1265" x1="20.5" y1="55" x2="20.5" y2="140" gradientUnits="userSpaceOnUse"><stop stop-color="#2069FF" stop-opacity="0"></stop><stop offset="1" stop-color="#003CB7"></stop></linearGradient></defs></svg>