<svg xmlns="http://www.w3.org/2000/svg" width="80" height="19" viewBox="0 0 80 19" fill="none">
  <path d="M21.3725 6.73448H29.3465V8.19559H26.2116V16.4109H24.4866V8.19559H21.3652V6.73392H21.372L21.3725 6.73448ZM29.0061 9.40408H30.4801V10.7566H30.5077C30.5566 10.5653 30.6467 10.3808 30.7789 10.203C31.0616 9.82194 31.4442 9.52654 31.8844 9.3495C32.108 9.2609 32.3461 9.21455 32.5865 9.21279C32.7666 9.21279 32.8994 9.21954 32.9691 9.22686C33.0383 9.23361 33.1075 9.24711 33.184 9.25386V10.7425C33.0712 10.7228 32.9576 10.7068 32.8437 10.6947C32.7305 10.6813 32.6167 10.6746 32.5027 10.6745C32.2383 10.6745 31.9885 10.729 31.7522 10.832C31.5159 10.9338 31.3139 11.0908 31.1406 11.2894C30.9557 11.5115 30.8141 11.7662 30.7232 12.0405C30.6191 12.3409 30.5701 12.6819 30.5701 13.0718V16.4041H28.9993V9.40408H29.0061ZM40.4074 16.4114H38.8642V15.4347H38.8361C38.6414 15.7903 38.3567 16.0705 37.9741 16.282C37.5916 16.4936 37.2022 16.6027 36.8061 16.6027C35.8677 16.6027 35.1858 16.3777 34.7695 15.9197C34.352 15.4623 34.1433 14.7725 34.1433 13.8504V9.40464H35.7147V13.7002C35.7147 14.3151 35.8328 14.7523 36.0764 15.0049C36.3127 15.2575 36.6531 15.3875 37.0841 15.3875C37.4177 15.3875 37.6889 15.3396 37.9111 15.2367C38.1339 15.1343 38.3145 15.0049 38.4467 14.8339C38.5857 14.6701 38.683 14.4653 38.746 14.233C38.8079 14.0006 38.8361 13.748 38.8361 13.4751V9.41139H40.4074V16.4114ZM43.0838 14.1649C43.1327 14.615 43.306 14.9301 43.6053 15.114C43.9108 15.2918 44.2726 15.3875 44.6968 15.3875C44.8431 15.3875 45.0096 15.3734 45.1975 15.3531C45.3849 15.3323 45.5655 15.2845 45.7258 15.2237C45.8923 15.1619 46.024 15.0662 46.1354 14.9436C46.24 14.8198 46.2884 14.6634 46.2817 14.4653C46.2808 14.3734 46.2605 14.2827 46.2222 14.1992C46.1839 14.1156 46.1285 14.0411 46.0594 13.9804C45.9199 13.851 45.7466 13.7553 45.5306 13.6732C45.2899 13.5898 45.0436 13.5236 44.7936 13.4751C44.5156 13.4206 44.2377 13.3587 43.953 13.2974C43.6662 13.2353 43.383 13.1577 43.1046 13.065C42.8435 12.9813 42.5972 12.8569 42.3749 12.6965C42.1582 12.5453 41.9816 12.3437 41.8601 12.1091C41.7284 11.87 41.6654 11.5763 41.6654 11.2213C41.6654 10.8387 41.7628 10.5248 41.9507 10.2649C42.1402 10.0071 42.3849 9.79492 42.6669 9.64375C42.9699 9.48355 43.2957 9.37066 43.6329 9.309C43.9873 9.24767 44.3283 9.21335 44.6478 9.21335C45.0164 9.21335 45.3708 9.25442 45.705 9.32981C46.0285 9.39908 46.3369 9.52621 46.6153 9.70508C46.8865 9.87611 47.1087 10.1012 47.2899 10.3746C47.4705 10.6475 47.5819 10.9822 47.6303 11.3715H45.9897C45.9132 11.003 45.7461 10.7504 45.4755 10.6272C45.2043 10.4978 44.8915 10.4359 44.5438 10.4359C44.4324 10.4359 44.3002 10.4427 44.1477 10.4635C44.0008 10.483 43.8562 10.5173 43.7162 10.5659C43.5882 10.613 43.472 10.6875 43.3758 10.7842C43.3291 10.8346 43.2927 10.8938 43.2689 10.9583C43.2451 11.0227 43.2341 11.0913 43.2368 11.16C43.2368 11.3513 43.306 11.5015 43.4382 11.6174C43.5704 11.7333 43.7443 11.8289 43.9598 11.9111C44.1753 11.9865 44.4189 12.0545 44.6968 12.1091C44.9747 12.1637 45.2594 12.225 45.552 12.2869C45.8366 12.3482 46.1146 12.4304 46.3931 12.5187C46.671 12.6076 46.9141 12.7308 47.1301 12.8878C47.3456 13.0447 47.5194 13.236 47.6511 13.4684C47.7833 13.7002 47.8531 13.9939 47.8531 14.3354C47.8531 14.7517 47.7557 15.1005 47.5605 15.3942C47.3664 15.6812 47.116 15.9197 46.81 16.0975C46.4896 16.282 46.1424 16.4157 45.7809 16.4936C45.4132 16.5745 45.0379 16.6156 44.6614 16.6162C44.2397 16.621 43.8192 16.5705 43.4107 16.466C43.0281 16.3636 42.6945 16.2134 42.4165 16.0159C42.1418 15.8163 41.916 15.557 41.756 15.2575C41.5962 14.9571 41.5124 14.5947 41.4989 14.1784H43.0838V14.1649ZM48.27 9.4052H49.4587V7.30103H51.0301V9.4052H52.4479V10.5586H51.0307V14.3016C51.0307 14.4648 51.0374 14.6021 51.0515 14.7247C51.065 14.8412 51.0999 14.9436 51.1488 15.0251C51.202 15.1109 51.2828 15.1759 51.3778 15.2097C51.4825 15.2508 51.6141 15.2716 51.7953 15.2716C51.9061 15.2716 52.0175 15.2716 52.1289 15.2643C52.2403 15.2575 52.3511 15.244 52.4625 15.2164V16.4114C52.2887 16.4322 52.1148 16.4457 51.9551 16.466C51.7866 16.4856 51.6171 16.4948 51.4476 16.4936C51.0307 16.4936 50.6971 16.4525 50.4461 16.3777C50.1963 16.3023 49.9944 16.1864 49.8554 16.0362C49.7091 15.8859 49.6191 15.7014 49.5634 15.4758C49.5092 15.2221 49.4791 14.9638 49.4734 14.7045V10.5715H48.2846V9.40352H48.2705L48.27 9.4052ZM53.5602 9.4052H55.0483V10.3538H55.0764C55.2981 9.94419 55.6042 9.65725 56.0003 9.48003C56.4051 9.30003 56.8439 9.20909 57.2869 9.21335C57.8496 9.21335 58.3362 9.309 58.7537 9.50704C59.1706 9.69833 59.5183 9.965 59.7962 10.3059C60.0741 10.6475 60.2761 11.0435 60.4151 11.4947C60.5567 11.9641 60.627 12.4521 60.6238 12.9424C60.6238 13.4133 60.5614 13.8707 60.4359 14.3084C60.3207 14.7306 60.1299 15.1284 59.8727 15.4825C59.62 15.824 59.2917 16.1022 58.9135 16.2955C58.5241 16.5003 58.0724 16.6027 57.5441 16.6027C57.3131 16.6025 57.0827 16.5817 56.8554 16.5408C56.6287 16.5 56.4074 16.4337 56.1955 16.3433C55.985 16.2555 55.7882 16.1381 55.6109 15.9945C55.436 15.855 55.2836 15.6893 55.1591 15.5034H55.131V19H53.5602V9.40408V9.4052ZM59.0524 12.9148C59.0527 12.6034 59.0107 12.2933 58.9275 11.9932C58.8505 11.7089 58.7232 11.4406 58.5517 11.2011C58.389 10.9732 58.1778 10.7841 57.9334 10.6475C57.6709 10.5056 57.3766 10.4328 57.0782 10.4359C56.4177 10.4359 55.917 10.661 55.5834 11.1122C55.2497 11.5628 55.0826 12.1643 55.0826 12.9148C55.0826 13.2698 55.1248 13.5978 55.2148 13.8982C55.3049 14.1987 55.4303 14.4586 55.6109 14.6769C55.7853 14.8957 55.9935 15.0662 56.2371 15.1889C56.4802 15.3188 56.7654 15.3802 57.085 15.3802C57.4467 15.3802 57.7455 15.3053 57.9958 15.1619C58.2383 15.0224 58.4471 14.8313 58.6074 14.6021C58.7672 14.3697 58.8859 14.1098 58.9551 13.8167C59.0191 13.5203 59.0517 13.218 59.0524 12.9148ZM61.8261 6.73448H63.3975V8.19615H61.8261V6.73448ZM61.8261 9.40464H63.3975V16.4114H61.8261V9.40464ZM64.8018 6.73448H66.3731V16.4114H64.8018V6.73448ZM71.1908 16.6027C70.6203 16.6027 70.1128 16.5071 69.6684 16.3231C69.2423 16.1483 68.8566 15.8879 68.5353 15.5579C68.2229 15.2213 67.9836 14.8236 67.8326 14.39C67.6672 13.9112 67.585 13.4077 67.5895 12.9013C67.5895 12.3685 67.6728 11.8773 67.8326 11.4261C67.9837 10.9926 68.223 10.5951 68.5353 10.2587C68.8408 9.93068 69.2233 9.67807 69.6684 9.49353C70.1128 9.309 70.6203 9.21335 71.1908 9.21335C71.7607 9.21335 72.2682 9.309 72.7132 9.49353C73.1583 9.67807 73.5335 9.938 73.8463 10.2587C74.1587 10.595 74.3978 10.9926 74.5485 11.4261C74.7083 11.8768 74.7915 12.3685 74.7915 12.9013C74.7915 13.4414 74.7083 13.9393 74.5485 14.39C74.3979 14.8237 74.1588 15.2215 73.8463 15.5579C73.5403 15.8859 73.1583 16.1386 72.7132 16.3231C72.2682 16.5071 71.7607 16.6027 71.1908 16.6027ZM71.1908 15.3802C71.5385 15.3802 71.844 15.3053 72.1011 15.1619C72.3517 15.0224 72.568 14.8286 72.734 14.5947C72.9006 14.3629 73.0187 14.0963 73.1026 13.8026C73.1791 13.5089 73.2207 13.2085 73.2207 12.9013C73.2207 12.6008 73.1791 12.3072 73.1026 12.0067C73.0309 11.7217 72.9059 11.4529 72.734 11.2146C72.5676 10.9829 72.3513 10.7916 72.1011 10.6548C71.844 10.5113 71.5385 10.4359 71.1908 10.4359C70.8431 10.4359 70.537 10.5113 70.2799 10.6548C70.0313 10.7937 69.8156 10.9847 69.6475 11.2146C69.4782 11.4544 69.3533 11.7227 69.279 12.0067C69.202 12.2987 69.1622 12.5993 69.1603 12.9013C69.1603 13.2085 69.2025 13.5089 69.279 13.8026C69.3556 14.0963 69.4805 14.3629 69.6475 14.5947C69.8141 14.8271 70.0228 15.0184 70.2799 15.1619C70.537 15.3121 70.8431 15.3802 71.1908 15.3802ZM75.2506 9.4052H76.4394V7.30103H78.0108V9.4052H79.4286V10.5586H78.0108V14.3016C78.0108 14.4648 78.0175 14.6021 78.031 14.7247C78.0451 14.8412 78.08 14.9436 78.1289 15.0251C78.182 15.1109 78.2628 15.1761 78.3579 15.2097C78.4626 15.2508 78.5942 15.2716 78.7754 15.2716C78.8862 15.2716 78.9976 15.2716 79.109 15.2643C79.2204 15.2575 79.3312 15.244 79.4426 15.2164V16.4114C79.2688 16.4322 79.095 16.4457 78.9352 16.466C78.7667 16.4856 78.5973 16.4948 78.4277 16.4936C78.0108 16.4936 77.6766 16.4525 77.4262 16.3777C77.1764 16.3023 76.9745 16.1864 76.8355 16.0362C76.6898 15.8859 76.5992 15.7014 76.5435 15.4758C76.4894 15.2221 76.4593 14.9638 76.4535 14.7045V10.5715H75.2647V9.40352H75.2506V9.4052Z" fill="#010310"/>
  <path d="M19.5363 6.73391H12.3342L10.1097 0L7.87723 6.73448L0.675781 6.72716L6.50839 10.8928L4.27707 17.6194L10.1097 13.4605L15.9355 17.6194L13.711 10.8928L19.5363 6.73391Z" fill="#04DA8D"/>
  <path d="M14.2108 12.4163L13.7101 10.8933L10.1094 13.4611L14.2108 12.4163Z" fill="#126849"/>
</svg>