<svg width="220" height="200" viewBox="0 0 220 200" fill="none" xmlns="http://www.w3.org/2000/svg">
<g clip-path="url(#clip0_259_877)">
<rect width="220" height="200" rx="20" fill="#FF0000"/>
<path opacity="0.45" fill-rule="evenodd" clip-rule="evenodd" d="M214.929 113.506C209.849 102.611 203.917 92.4034 197.249 82.9331L197.909 83.9251C193.757 79.0264 187.602 76.628 181.607 77.5088L181.479 77.5335C176.394 78.3733 165.388 82.6696 154.897 87.0975C142.325 92.4144 130.496 97.9304 130.496 97.9304C130.496 97.9304 90.7598 116.39 82.0905 123.879C77.4708 127.983 75.3519 134.24 76.4009 140.446L76.4352 140.569C77.5458 144.867 78.8794 149.27 80.4005 153.702C81.7305 157.549 83.2148 161.429 84.8218 165.299C89.0643 175.517 94.2396 185.694 100.083 195.189C102.295 198.788 104.603 202.295 106.986 205.663L106.317 204.652C110.47 209.551 116.625 211.949 122.624 211.078L122.742 211.058C133.92 209.222 173.735 190.656 173.735 190.656C173.735 190.656 213.435 172.144 222.141 164.708C226.756 160.594 228.885 154.333 227.826 148.131L227.801 148.003C225.163 137.966 221.156 126.86 216.076 115.965L215.506 114.769L214.929 113.506ZM148.695 170.13L130.147 130.354L172.569 134.825L148.695 170.13Z" fill="white"/>
</g>
<defs>
<clipPath id="clip0_259_877">
<rect width="220" height="200" rx="20" fill="white"/>
</clipPath>
</defs>
</svg>
