<svg width="40" height="39" viewBox="0 0 40 39" fill="none" xmlns="http://www.w3.org/2000/svg">
<g clip-path="url(#clip0_114_27847)">
<path d="M38.6965 10.1399C38.2469 8.46922 36.9296 7.15228 35.2592 6.7024C32.2073 5.86719 19.9996 5.86719 19.9996 5.86719C19.9996 5.86719 7.79224 5.86719 4.74032 6.67056C3.10203 7.12015 1.75266 8.46952 1.30307 10.1399C0.5 13.1916 0.5 19.5203 0.5 19.5203C0.5 19.5203 0.5 25.881 1.30307 28.9008C1.75296 30.5712 3.0699 31.8884 4.74061 32.3383C7.82437 33.1735 19.9999 33.1735 19.9999 33.1735C19.9999 33.1735 32.2073 33.1735 35.2592 32.3701C36.9299 31.9205 38.2469 30.6033 38.6968 28.9329C39.4998 25.881 39.4998 19.5525 39.4998 19.5525C39.4998 19.5525 39.532 13.1916 38.6965 10.1399Z" fill="#FF0000"/>
<path d="M16.1133 25.3654L26.2646 19.5186L16.1133 13.6719V25.3654Z" fill="white"/>
</g>
<defs>
<clipPath id="clip0_114_27847">
<rect width="39" height="39" fill="white" transform="translate(0.5)"/>
</clipPath>
</defs>
</svg>
